<?xml version="1.0" encoding="UTF-8" standalone="no"?>
<svg
   xmlns:dc="http://purl.org/dc/elements/1.1/"
   xmlns:cc="http://creativecommons.org/ns#"
   xmlns:rdf="http://www.w3.org/1999/02/22-rdf-syntax-ns#"
   xmlns:svg="http://www.w3.org/2000/svg"
   xmlns="http://www.w3.org/2000/svg"
   viewBox="0 0 390.52719 555.59814"
   height="555.59814"
   width="390.52719"
   xml:space="preserve"
   id="svg2"
   version="1.1"><metadata
     id="metadata8"><rdf:RDF><cc:Work
         rdf:about=""><dc:format>image/svg+xml</dc:format><dc:type
           rdf:resource="http://purl.org/dc/dcmitype/StillImage" /></cc:Work></rdf:RDF></metadata><defs
     id="defs6" /><g
     transform="matrix(1.3333333,0,0,-1.3333333,0,555.59813)"
     id="g10"><path
       id="path12"
       style="fill:#373535;fill-opacity:1;fill-rule:evenodd;stroke:none"
       d="m 95.707,288.7903 c 1.6704,0.0553 4.2205,1.6523 4.6276,2.7763 1.2361,3.4114 -1.4908,6.4607 1.8286,7.8137 2.8261,1.1517 9.5332,2.9236 12.1385,2.7912 5.1582,-0.2619 3.8089,-6.5375 6.514,-10.4678 2.4398,-0.1131 6.5795,1.5118 8.9941,2.0937 3.6626,0.8824 6.6707,0.538 10.2421,1.0911 l 3.0492,4.7928 c 2.1022,1.7039 3.9867,0.8742 5.4547,-0.8513 3.2398,-3.8077 2.7012,-7.7485 3.0093,-13.5232 5.4128,-0.6069 8.1853,-0.005 12.6913,-2.4304 3.7258,-2.0058 5.2256,-3.8704 10.245,-5.1718 4.1008,-1.0633 8.7777,-1.0004 12.7139,-2.4605 4.0272,-1.4939 5.5712,-4.3126 9.7152,-5.8048 4.4957,-1.6191 7.2734,-1.7277 8.9186,-6.1631 1.283,-3.4585 0.8184,-10.5369 -0.3583,-13.9124 -1.3631,-3.9104 -5.2319,-3.8356 -7.4106,-8.098 -4.7616,-9.3141 -4.6658,-3.0569 -6.709,-8.7911 -3.21,-9.0088 -2.2714,-14.3927 -7.511,-23.0531 -7.4622,-12.3346 -10.0287,-8.6105 -19.5953,-11.3326 -4.0751,-1.1594 -6.9304,-3.0614 -8.1927,-6.9463 -1.6053,-4.9411 0.7818,-4.197 -4.2508,-11.2479 -2.117,-2.9661 -4.2177,-5.4958 -6.7808,-8.7125 -0.5967,-0.7489 -2.552,-3.674 -3.6669,-3.856 -3.2119,-0.5241 -2.1631,3.4197 -2.4817,5.3833 -2.9999,3.2233 -9.2557,3.8934 -12.2678,6.7875 0.5709,5.218 5.1505,6.6799 7.4231,10.2561 2.5755,4.0532 -1.393,10.08 -2.5657,13.5785 l -8.4461,1.2583 c -3.4656,10.2569 1.8896,15.9987 -0.9981,18.5238 -1.4799,1.2943 -4.3381,2.9968 -6.2243,4.4408 -5.6148,4.299 -13.2757,10.5395 -16.5835,16.0835 -1.3249,2.2206 -5.9505,1.9448 -8.6607,1.2175 -3.0781,-0.8263 -5.3079,-1.9834 -9.0703,-0.7022 -8.0847,2.753 -13.2469,12.4744 -7.4021,19.9749 2.1266,2.7289 3.9234,2.924 6.2748,4.7361 5.6738,4.3722 0.1468,11.4591 1.9077,17.7101 0.769,2.7306 2.9886,4.2111 5.7784,4.852 4.2594,0.9783 5.4173,-0.3274 7.6496,-2.6362 z m -1.3757,8.8053 c -2.925,-0.3189 -10.9162,1.6418 -16.0324,-5.3295 -4.8705,-6.6367 -1.1398,-11.728 -1.5429,-18.4436 -4.9173,-2.7533 -7.6694,-5.0627 -9.6846,-9.5261 -5.91,-13.0907 5.4797,-27.0204 18.3345,-26.733 3.5169,0.0788 5.3685,1.4811 8.8767,1.0766 2.2703,-3.6252 4.2094,-5.3815 7.4443,-8.3188 14.9094,-13.5383 14.7476,-5.5346 14.2438,-17.3574 -0.1584,-3.7179 0.6495,-11.5353 2.5079,-13.7259 1.7081,-1.08 6.3725,-0.9836 8.6862,-1.5823 l 1.7064,-4.5989 c -1.5111,-2.0484 -8.9612,-7.1266 -8.3948,-13.796 0.5216,-6.1435 7.6,-7.2765 12.2134,-9.786 1.2707,-9.9012 10.4723,-10.0276 14.2959,-5.7433 3.4067,3.8166 12.7151,15.3094 13.9482,20.0931 0.5675,2.2008 0.3515,5.3053 1.8207,6.7941 4.1391,4.1936 14.9924,-0.2869 23.2183,10.8093 9.004,12.1456 7.084,16.2613 10.7351,27.8085 0.4923,1.5579 0.8719,1.4023 1.9261,2.1705 4.5831,3.3392 2.6575,6.0276 7.6873,9.5417 5.9797,4.178 7.0081,11.9423 6.3521,19.4524 -0.4538,5.1937 -2.3777,8.9079 -5.7829,11.4625 -3.7984,2.8497 -7.2754,2.4599 -11.3063,5.546 -3.6414,2.7876 -6.7669,4.2389 -12.1742,5.0661 -5.9698,0.9133 -8.4396,0.8529 -13.2044,3.9339 -4.3401,2.8063 -6.6747,3.8667 -12.501,4.7148 -1.4185,7.2017 -2.3854,10.7589 -7.1913,14.1387 -2.7722,1.9497 -4.5864,2.0279 -8.2618,0.8311 -3.6663,-1.1937 -3.9594,-2.4999 -5.8136,-5.2302 -2.2167,-0.2168 -4.2511,-0.3008 -6.2714,-0.6775 -1.9159,-0.3571 -3.8871,-1.1012 -5.6126,-1.2821 -1.7166,7.9651 -6.2623,10.6937 -15.3337,8.8948 -3.5779,-0.7095 -6.3468,-1.6494 -9.6021,-2.789 -5.1443,-1.8008 -3.9129,-2.8587 -5.2869,-7.4145" /><path
       id="path14"
       style="fill:#373535;fill-opacity:1;fill-rule:evenodd;stroke:none"
       d="m 181.008,127.9083 c 1.4978,-1.7187 2.4347,-3.6624 3.8392,-5.7209 l 7.6689,-11.9163 c 3.2386,-3.9869 11.7607,-2.4644 6.3196,5.9573 -1.2008,1.859 -2.6708,3.8809 -4.0868,5.8842 -1.3149,1.8601 -7.5534,10.1987 -7.8601,11.73 2.6662,2.8225 6.408,6.118 9.1437,8.7069 6.1412,5.8116 -0.4825,9.6934 -4.0882,6.8644 -3.9254,-3.0799 -15.3833,-17.0042 -17.7247,-17.979 -0.0782,4.3466 0.009,8.7264 -0.0136,13.0776 -0.0108,2.1044 -0.0865,3.8123 -1.5829,5.0049 -1.2923,1.0301 -3.6164,1.1162 -5.0051,0.1275 -2.5339,-1.8034 -1.694,-7.9418 -1.6937,-11.3309 0,-5.3277 -0.2554,-22.1947 0.0708,-26.1485 0.3314,-4.0178 5.0021,-5.3212 7.1975,-2.5285 2.1864,2.7816 0.1613,9.3161 1.1656,11.9954 0.195,0.5201 5.6928,5.8541 6.6498,6.2759" /><path
       id="path16"
       style="fill:#373535;fill-opacity:1;fill-rule:evenodd;stroke:none"
       d="m 136.2016,115.524 -0.0879,11.2785 c 6.0911,1.7688 20.7692,-2.6243 20.8732,3.2607 0.074,4.1879 -5.3212,3.1904 -8.9986,3.1907 -2.7561,2e-4 -9.528,-0.328 -11.7935,0.1374 -0.1528,1.4301 -0.3988,9.3705 0.3342,9.8031 0.6273,0.3705 8.9867,0.123 10.4275,0.123 2.4455,0 8.5235,-0.5094 10.2821,0.5395 2.5422,1.5156 1.8494,5.6247 -2.353,5.8158 -6.7428,0.3067 -14.8901,0.1395 -21.7029,0.001 -3.9305,-0.0796 -5.2143,-1.2932 -5.345,-5.1488 -0.1757,-5.1906 -0.2951,-29.6981 0.1352,-32.1115 0.6469,-3.6266 3.3055,-3.5504 6.9435,-3.5441 l 21.5515,0.0776 c 3.42,0.5692 3.8489,4.9975 0.938,6.143 -2.8962,1.1395 -16.7548,-0.3002 -21.2043,0.4337" /><path
       id="path18"
       style="fill:#373535;fill-opacity:1;fill-rule:evenodd;stroke:none"
       d="m 218.0906,124.8625 c 0.1216,1.9153 5.1769,15.6543 5.9405,16.3882 l 5.7813,-16.3956 -2.7145,-0.0176 -7.2229,-6e-4 z m -2.3432,-6.3049 16.4294,0.063 c 1.5789,-3.1814 3.4106,-13.6741 9.1496,-9.6786 2.6859,1.8697 1.4225,4.9518 0.3858,7.5078 -1.0029,2.4729 -2.0123,4.919 -2.9846,7.3596 -2.0225,5.0777 -3.9223,9.7262 -5.934,14.6996 -1.8037,4.4583 -3.2902,11.808 -8.7948,11.8488 -5.4391,0.0403 -6.516,-5.9465 -8.8254,-11.8613 l -8.7389,-22.1774 c -0.9454,-2.4151 -2.3607,-5.2908 0.3058,-7.3326 5.8003,-4.4414 7.1031,6.6121 9.0071,9.5711" /><path
       id="path20"
       style="fill:#373535;fill-opacity:1;fill-rule:evenodd;stroke:none"
       d="m 68.1905,141.0749 c 1.3516,-1.4763 2.3165,-5.6477 3.1349,-7.8797 0.678,-1.8493 2.6506,-6.5353 2.7858,-8.356 l -11.8732,0.0885 z m -8.1139,-22.5207 16.5368,0.0649 c 1.4641,-3.0248 3.8684,-14.2897 9.3778,-9.4631 2.3545,2.0625 1.0837,4.7755 0.1168,7.2037 l -8.8154,21.7936 c -1.7462,4.3115 -3.3237,11.8499 -8.4563,12.1918 -5.7785,0.3846 -6.7655,-5.4462 -9.0375,-11.1906 -1.9601,-4.9561 -3.9257,-9.9491 -5.8396,-14.8173 -0.9148,-2.3264 -1.8119,-4.7038 -2.8182,-7.1793 -0.925,-2.2754 -2.7046,-5.5301 -0.5207,-7.7522 0.8617,-0.8768 2.283,-1.5225 4.1065,-1.0363 2.7442,0.7313 3.4971,6.9069 5.3498,10.1848" /><path
       id="path22"
       style="fill:#373535;fill-opacity:1;fill-rule:evenodd;stroke:none"
       d="m 101.598,126.6296 c 3.2777,0.0881 6.6435,0.0232 9.9311,0.0212 3.2057,-0.002 7.2726,-0.657 7.327,3.0657 0.0536,3.6961 -3.6073,3.155 -6.9831,3.1501 -3.3999,-0.005 -6.8125,-0.0257 -10.2113,0.008 l -0.1051,10.4615 c 5.0669,-0.1505 10.1939,-0.0227 15.1361,-0.0303 2.5002,-0.004 4.7982,0.301 4.9638,2.9208 0.1927,3.0515 -2.0707,3.4342 -4.6089,3.456 -5.0414,0.0434 -10.1049,-0.006 -15.1495,-0.003 -10.4298,0.007 -8.6391,0.0193 -8.6391,-22.0283 0,-4.3733 -0.4187,-11.359 0.0734,-15.4222 0.6506,-5.3742 6.9324,-5.2464 7.9897,-0.8297 0.766,3.198 -0.0104,11.2459 0.2759,15.23" /><path
       id="path24"
       style="fill:#97ce09;fill-opacity:1;fill-rule:evenodd;stroke:none"
       d="m 138.8214,237.685 c -4.5862,-0.8027 -9.5562,-2.4837 -12.7086,-5.955 -1.8728,-2.0625 -0.2548,-5.1256 2.59,-5.0051 2.2184,0.0941 4.1806,2.5268 6.0069,3.342 4.6871,2.0926 10.8522,1.7173 14.7986,-1.4961 10.072,-8.2006 3.1674,-17.4728 4.2117,-20.8939 1.7609,-5.7691 10.6659,1.2175 6.8355,15.3706 -1.1781,4.352 -4.4292,8.7698 -7.7692,10.8802 -3.7267,2.3545 -8.468,4.7194 -13.9649,3.7573" /><path
       id="path26"
       style="fill:#0fb2e5;fill-opacity:1;fill-rule:evenodd;stroke:none"
       d="m 173.793,260.1473 c -5.0233,-1.3388 -8.5465,-3.8763 -11.3395,-7.6688 -2.6665,-3.6201 -4.6644,-8.9561 -3.9549,-14.6461 0.8731,-7.0035 5.6821,-13.6723 12.0552,-16.4367 11.3678,-4.9308 9.8637,3.3024 6.2674,4.5692 -3.0078,1.0599 -4.1607,0.9953 -6.6478,2.9883 -8.0878,6.4808 -7.1376,19.5103 2.8196,24.3306 2.492,1.2064 5.3935,0.9105 6.1654,3.5016 1.1971,4.0199 -2.7587,4.0567 -5.3654,3.3619" /><path
       id="path28"
       style="fill:#f6ce0f;fill-opacity:1;fill-rule:evenodd;stroke:none"
       d="m 155.1951,270.0986 c -4.4849,-1.9499 1.2544,-6.9216 -1.9148,-14.6242 -1.7384,-4.2256 -5.1647,-7.2056 -9.6596,-8.5019 -9.1253,-2.632 -13.3339,5.6044 -16.592,5.5034 -1.201,-0.0374 -2.3097,-0.6239 -2.7006,-1.8326 -1.3238,-4.0949 5.9097,-7.823 8.9873,-9.0116 7.2859,-2.8142 15.0037,-0.9051 20.6489,4.2027 10.3805,9.3926 6.8602,26.7117 1.2308,24.2642" /><path
       id="path30"
       style="fill:#f6ce0f;fill-opacity:1;fill-rule:evenodd;stroke:none"
       d="m 139.2863,263.6649 c -1.7723,-0.6143 -2.079,-0.5752 -3.0076,-2.2255 -0.7106,-1.2637 -1.0165,-2.6586 -0.536,-4.3362 1.8014,-6.2898 12.058,-4.0249 10.1214,3.2128 -0.69,2.579 -3.3976,4.4507 -6.5778,3.3489" /><path
       id="path32"
       style="fill:#0fb2e5;fill-opacity:1;fill-rule:evenodd;stroke:none"
       d="m 175.0119,245.1594 c -6.8256,-1.8589 -4.0473,-11.7754 2.7887,-10.1188 6.3125,1.5296 4.5116,12.1068 -2.7887,10.1188" /><path
       id="path34"
       style="fill:#97ce09;fill-opacity:1;fill-rule:evenodd;stroke:none"
       d="m 140.3495,224.0742 c -6.7909,-3.136 -2.2671,-11.9869 3.8719,-9.76 2.3539,0.8538 4.1817,3.6134 3.189,6.6819 -0.8487,2.6234 -4.1724,4.4118 -7.0609,3.0781" /></g></svg>